<svg xmlns="http://www.w3.org/2000/svg" fill-rule="evenodd" stroke-linejoin="round" stroke-miterlimit="2" clip-rule="evenodd" viewBox="0 0 600 600">
  <g id="Tomoe">
    <path id="path3678" fill="#fff" fill-rule="nonzero" d="M258.88 567.6c-63.13-10.49-121.53-41.94-163.2-90.95-12.3-14.45-35-41.63-39.23-63.65-5.72-29.88-6.84-66.93 7.25-94.91 24.83-49.32 74.7-75.24 129.13-66.77 65.72 10.23 108.12 73.78 100.03 138.02-2.32 18.4-11.13 36.19-22.02 50.91-10.23 13.84-21.5 16.81-6.05 29.14 48.64 38.8 116.78 50.25 175.83 31.15 17.1-5.53 35.28-13.94 50.38-23.78 7-4.55 13.25-10.15 19.85-15.27 2.79-2.16 4.82-7.08 8.31-6.56 2.71.4-2.34 5-3.96 7.21a243.87 243.87 0 01-14.55 18.14c-16 18.03-34.74 33.64-55 46.67-54.4 34.97-122.51 51.32-186.77 40.65zm155.73-81.86c-38.91-5.14-75.14-30.41-93.14-65.42-16.4-31.9-14.74-75.41 1.44-107 16.3-31.8 47.51-55.14 82.5-62.17a135.82 135.82 0 0135.74-2.17c18.02 1.31 22.98 1.86 24.57-16 4.68-52.64-13.84-107.46-50.67-145.57-12.67-13.11-27.33-23.37-42.56-33.3-7.76-5.06-15.88-9.52-23.87-14.19-2.95-1.72-6.14-3.02-8.94-4.97-.76-.52-2.44-2.34-1.52-2.3 18.82.79 51.15 11.79 64.08 17.12 103.24 42.58 171.94 148.85 167.26 260.5-2.95 70.36-33.28 152.95-109 172.66-12.13 3.16-33.43 4.45-45.89 2.8zM48.64 397.23c-3.81-6.65-5.24-14.42-7.3-21.8-5.72-20.5-9.01-36.12-10.45-57.2C23.56 211.1 82.64 106.9 178.4 58.43a270.82 270.82 0 0186.36-26.9c6.57-.88 36.14-3.57 46.87-1.72 41.36 7.17 84.1 42.04 97.47 82.2 19.66 59.1-5.98 127.26-65.51 151.57-11.49 4.69-30.88 8.9-43 10.07-37.7 3.66-77.35-18.13-100.14-46.78-14.32-18.02-12.11-19.15-20.31-39.75-1.19-2.98-1.1-7.36-3.98-8.77-2.86-1.4-6.33 1.08-9.29 2.27-5.8 2.34-11.38 5.28-16.88 8.28-47.91 26.16-83.57 70.64-96.34 124.28-5.96 25-5.04 42.28-4 67.08.2 4.33.99 8.62 1.1 12.96 0 .44.43 8.42-2.1 4z"/>
  </g>
</svg>
