<svg xmlns="http://www.w3.org/2000/svg" fill-rule="evenodd" stroke-linejoin="round" stroke-miterlimit="2" clip-rule="evenodd" viewBox="0 0 226 316">
  <g id="tomoe" fill="#fff">
    <path id="circle" d="M113 0c62.37 0 113 50.63 113 113s-50.63 113-113 113S0 175.37 0 113 50.63 0 113 0zm0 3.77c60.29 0 109.23 48.94 109.23 109.23 0 60.29-48.94 109.23-109.23 109.23C52.71 222.23 3.77 173.3 3.77 113 3.77 52.71 52.7 3.77 113 3.77z"/>
    <path id="path3678" fill-rule="nonzero" d="M97.09 216.56c-24.43-4.06-47.03-16.23-63.16-35.2-4.76-5.59-13.55-16.1-15.18-24.63-2.21-11.56-2.65-25.9 2.8-36.73 9.62-19.08 28.91-29.12 49.98-25.84 25.43 3.96 41.84 28.55 38.7 53.41-.89 7.13-4.3 14-8.52 19.7-3.95 5.36-8.31 6.51-2.34 11.28 18.83 15.01 45.2 19.45 68.05 12.06a84.68 84.68 0 0019.5-9.2c2.7-1.77 5.12-3.94 7.67-5.91 1.08-.84 1.87-2.74 3.22-2.54 1.05.15-.9 1.93-1.53 2.79a94.47 94.47 0 01-5.63 7.02 102.64 102.64 0 01-21.28 18.06c-21.06 13.53-47.42 19.86-72.28 15.73zm60.26-31.68c-15.06-1.99-29.08-11.77-36.04-25.32-6.35-12.34-5.7-29.18.56-41.4a46.61 46.61 0 0131.92-24.06c4.44-.9 9.32-1.17 13.83-.84 6.98.5 8.9.72 9.51-6.2 1.81-20.37-5.35-41.58-19.6-56.33-4.91-5.07-10.58-9.04-16.48-12.89-3-1.95-6.14-3.68-9.24-5.49-1.13-.66-2.37-1.16-3.45-1.92-.3-.2-.95-.9-.6-.9 7.3.31 19.8 4.57 24.8 6.63 39.96 16.48 66.55 57.6 64.73 100.82-1.14 27.22-12.88 59.18-42.18 66.81-4.7 1.23-12.94 1.72-17.76 1.09zM15.73 150.63c-1.48-2.58-2.03-5.58-2.83-8.44-2.21-7.93-3.49-13.98-4.04-22.14C6.02 78.6 28.88 38.28 65.94 19.52c10.46-5.3 21.8-8.87 33.42-10.42 2.55-.33 13.99-1.38 18.14-.66 16 2.78 32.55 16.27 37.72 31.8 7.6 22.88-2.31 49.26-25.35 58.66-4.45 1.82-11.95 3.45-16.64 3.9-14.6 1.42-29.94-7.01-38.75-18.1-5.55-6.97-4.7-7.41-7.87-15.39-.45-1.15-.42-2.84-1.53-3.39-1.11-.54-2.45.42-3.6.88a62.2 62.2 0 00-6.53 3.2C36.4 80.14 22.6 97.35 17.66 118.1c-2.3 9.68-1.94 16.36-1.54 25.96.07 1.67.38 3.34.42 5.01 0 .18.17 3.26-.81 1.56z"/>
  </g>
  <g id="text" fill="#fff" fill-rule="nonzero">
    <path id="tagline" d="M5.83 302.96l.38 2.65.57-2.39 3.98-14.03h2.23l3.88 14.03.56 2.43.42-2.7 3.12-13.76h2.67l-4.88 20.1h-2.41l-4.14-14.64-.32-1.54-.32 1.54-4.3 14.65h-2.4L0 289.2h2.65l3.18 13.76z"/>
    <path d="M31.95 309.57a6.53 6.53 0 01-4.94-2c-1.27-1.32-1.9-3.1-1.9-5.33v-.47c0-1.48.28-2.8.84-3.97a6.61 6.61 0 012.38-2.73 5.96 5.96 0 013.3-.99 5.6 5.6 0 014.53 1.92c1.08 1.28 1.62 3.11 1.62 5.5v1.06H27.66a5.31 5.31 0 001.29 3.57c.82.9 1.87 1.36 3.14 1.36.9 0 1.67-.19 2.3-.55a5.76 5.76 0 001.64-1.47l1.56 1.22c-1.26 1.92-3.13 2.88-5.64 2.88zm-.31-13.4a3.4 3.4 0 00-2.6 1.13c-.7.75-1.13 1.8-1.3 3.16h7.49v-.2a4.87 4.87 0 00-1.05-3.01 3.2 3.2 0 00-2.54-1.07zM53.38 302c0 2.27-.52 4.11-1.57 5.5a5.03 5.03 0 01-4.23 2.07 5.2 5.2 0 01-4.37-2l-.13 1.73h-2.35v-21.21h2.56V296a5.18 5.18 0 014.27-1.92c1.8 0 3.23.69 4.27 2.06 1.04 1.37 1.55 3.25 1.55 5.63v.22zm-2.55-.3c0-1.74-.34-3.08-1.01-4.03a3.33 3.33 0 00-2.9-1.42c-1.68 0-2.9.78-3.63 2.35v6.46c.78 1.56 2 2.34 3.66 2.34 1.22 0 2.17-.47 2.86-1.42.68-.95 1.02-2.37 1.02-4.28zM64 309.3v-20.1h5.68c1.75 0 3.3.38 4.64 1.15a7.84 7.84 0 013.11 3.3c.73 1.43 1.1 3.07 1.11 4.92v1.28c0 1.9-.36 3.56-1.1 4.99a7.72 7.72 0 01-3.13 3.28 9.71 9.71 0 01-4.74 1.18H64zm2.65-17.94v15.77h2.8c2.04 0 3.63-.64 4.76-1.9 1.14-1.28 1.7-3.09 1.7-5.44v-1.17c0-2.29-.53-4.06-1.6-5.33-1.07-1.27-2.6-1.91-4.56-1.93h-3.1zM88.34 309.57a6.53 6.53 0 01-4.94-2c-1.27-1.32-1.9-3.1-1.9-5.33v-.47c0-1.48.28-2.8.85-3.97a6.61 6.61 0 012.37-2.73 5.96 5.96 0 013.3-.99 5.6 5.6 0 014.54 1.92c1.07 1.28 1.61 3.11 1.61 5.5v1.06H84.05a5.31 5.31 0 001.3 3.57c.82.9 1.86 1.36 3.13 1.36.9 0 1.67-.19 2.3-.55a5.76 5.76 0 001.64-1.47l1.56 1.22c-1.25 1.92-3.13 2.88-5.64 2.88zm-.31-13.4a3.4 3.4 0 00-2.6 1.13c-.7.75-1.13 1.8-1.3 3.16h7.49v-.2a4.87 4.87 0 00-1.05-3.01 3.2 3.2 0 00-2.54-1.07zM101.88 305.83l3.7-11.47h2.6l-5.35 14.94h-1.95l-5.41-14.94h2.61l3.8 11.47zM116.67 309.57a6.53 6.53 0 01-4.95-2c-1.27-1.32-1.9-3.1-1.9-5.33v-.47c0-1.48.28-2.8.85-3.97a6.63 6.63 0 012.37-2.73 5.97 5.97 0 013.3-.99 5.6 5.6 0 014.54 1.92c1.07 1.28 1.61 3.11 1.61 5.5v1.06h-10.12a5.31 5.31 0 001.3 3.57c.82.9 1.86 1.36 3.13 1.36.9 0 1.67-.19 2.3-.55a5.76 5.76 0 001.64-1.47l1.56 1.22c-1.25 1.92-3.13 2.88-5.63 2.88zm-.32-13.4a3.4 3.4 0 00-2.6 1.13c-.7.75-1.13 1.8-1.3 3.16h7.49v-.2a4.87 4.87 0 00-1.05-3.01 3.2 3.2 0 00-2.54-1.07zM125.67 288.09h2.56v21.21h-2.56zM131.63 301.69c0-1.46.3-2.78.87-3.95a6.44 6.44 0 012.4-2.7 6.54 6.54 0 013.51-.96c2.04 0 3.68.7 4.94 2.11 1.26 1.41 1.89 3.29 1.89 5.62v.18a8.9 8.9 0 01-.84 3.92 6.35 6.35 0 01-5.96 3.66c-2.02 0-3.66-.7-4.92-2.1-1.26-1.42-1.89-3.28-1.89-5.6v-.18zm2.57.3c0 1.66.39 2.99 1.16 4 .76 1 1.8 1.5 3.08 1.5 1.3 0 2.33-.51 3.1-1.53.76-1.01 1.14-2.44 1.14-4.27 0-1.64-.39-2.97-1.17-3.99a3.71 3.71 0 00-3.1-1.52c-1.26 0-2.27.5-3.05 1.5-.77 1-1.16 2.44-1.16 4.31zM161.06 302c0 2.27-.52 4.1-1.56 5.49a5 5 0 01-4.23 2.08 5.48 5.48 0 01-4.28-1.72v7.2h-2.55v-20.7h2.33l.13 1.66a5.26 5.26 0 014.33-1.93c1.8 0 3.22.68 4.26 2.03 1.05 1.35 1.57 3.24 1.57 5.65v.23zm-2.56-.3a6.6 6.6 0 00-1.07-3.99 3.47 3.47 0 00-2.96-1.46c-1.54 0-2.7.68-3.48 2.06v7.13a3.76 3.76 0 003.51 2.05c1.23 0 2.2-.49 2.92-1.46.72-.97 1.09-2.41 1.09-4.33zM166.7 294.36l.08 1.65a5.52 5.52 0 014.43-1.93c2.09 0 3.51.8 4.27 2.4.5-.72 1.14-1.3 1.94-1.74.8-.44 1.73-.66 2.82-.66 3.28 0 4.94 1.74 5 5.2v10.02h-2.56v-9.86c0-1.07-.24-1.87-.73-2.4-.49-.53-1.3-.8-2.46-.8-.94 0-1.73.3-2.36.86a3.45 3.45 0 00-1.09 2.28v9.92h-2.57v-9.8c0-2.16-1.06-3.25-3.19-3.25-1.67 0-2.82.71-3.44 2.14v10.9h-2.55v-14.93h2.42zM195.29 309.57a6.53 6.53 0 01-4.94-2c-1.27-1.32-1.9-3.1-1.9-5.33v-.47c0-1.48.27-2.8.84-3.97a6.62 6.62 0 012.38-2.73 5.96 5.96 0 013.3-.99 5.6 5.6 0 014.53 1.92c1.08 1.28 1.62 3.11 1.62 5.5v1.06H191a5.31 5.31 0 001.29 3.57c.82.9 1.87 1.36 3.14 1.36.9 0 1.66-.19 2.3-.55a5.76 5.76 0 001.63-1.47l1.56 1.22c-1.25 1.92-3.13 2.88-5.63 2.88zm-.32-13.4a3.4 3.4 0 00-2.6 1.13c-.7.75-1.13 1.8-1.3 3.16h7.5v-.2a4.87 4.87 0 00-1.06-3.01 3.21 3.21 0 00-2.54-1.07zM206.49 294.36l.08 1.87a5.44 5.44 0 014.48-2.15c3.15 0 4.75 1.78 4.77 5.34v9.88h-2.55v-9.89c-.01-1.08-.26-1.87-.74-2.39-.48-.51-1.24-.77-2.26-.77-.83 0-1.55.22-2.18.66a4.5 4.5 0 00-1.46 1.74v10.65h-2.56v-14.94h2.42zM223.14 290.74v3.62h2.8v1.97h-2.8v9.28c0 .6.13 1.05.38 1.35.24.3.67.44 1.26.44.3 0 .7-.05 1.22-.16v2.06c-.67.18-1.33.27-1.96.27-1.14 0-2-.34-2.58-1.03a4.45 4.45 0 01-.87-2.94v-9.27h-2.72v-1.97h2.72v-3.62h2.55z"/>
    <path id="name" d="M0 273.43v-32.77h7.81c3.83 0 6.8 1.2 8.91 3.59 2.12 2.39 3.18 5.76 3.18 10.1v5.48c0 4.34-1.07 7.7-3.22 10.06-2.15 2.36-5.26 3.54-9.34 3.54H0zm4.12-29.24v25.7h3.3c2.9 0 5.02-.82 6.36-2.48 1.33-1.66 2.01-4.12 2.05-7.38v-5.81c0-3.46-.67-6-2-7.6-1.33-1.62-3.33-2.43-6.02-2.43h-3.7z"/>
    <path d="M41.13 264.86H30.05l-2.54 8.57h-4.24l10.56-32.77h3.54l10.58 32.77H43.7l-2.58-8.57zm-10-3.54h8.94l-4.48-14.9-4.46 14.9zM73.81 273.43h-4.14l-13.12-25.26v25.26H52.4v-32.77h4.15l13.16 25.36v-25.36h4.1v32.77zM81.13 240.66h4.12v32.77h-4.12zM108.18 258.28H96.6v11.62h13.5v3.53H92.48v-32.77h17.4v3.53H96.6v10.56h11.6v3.53zM119.5 269.9h12.86v3.53h-17v-32.77h4.14v29.24zM162.14 265.15c0-1.64-.44-2.9-1.33-3.76-.88-.87-2.48-1.72-4.8-2.55a20.84 20.84 0 01-5.3-2.6 9.2 9.2 0 01-2.74-3.1 8.5 8.5 0 01-.91-4c0-2.6.86-4.73 2.6-6.41 1.73-1.68 4-2.52 6.8-2.52 1.93 0 3.64.42 5.14 1.28a8.79 8.79 0 013.47 3.58 10.6 10.6 0 011.21 5.04h-4.14c0-2.03-.49-3.6-1.46-4.7-.98-1.11-2.38-1.67-4.21-1.67-1.67 0-2.96.47-3.87 1.4-.92.93-1.38 2.24-1.38 3.92 0 1.38.5 2.54 1.49 3.47.99.94 2.52 1.77 4.59 2.5 3.23 1.07 5.53 2.39 6.92 3.95 1.39 1.56 2.08 3.6 2.08 6.12 0 2.66-.86 4.79-2.58 6.38-1.73 1.6-4.08 2.4-7.05 2.4-1.9 0-3.67-.42-5.28-1.25a9.44 9.44 0 01-5.19-8.7h4.14c0 2.03.57 3.6 1.7 4.73 1.14 1.12 2.68 1.69 4.63 1.69 1.82 0 3.18-.47 4.1-1.4a5.19 5.19 0 001.37-3.8zM171.89 240.66h4.12v32.77h-4.12zM192.82 253.22l6.17-12.56h4.84l-8.53 16.25 8.7 16.52h-4.88l-6.3-12.79-6.33 12.8h-4.88l8.76-16.53-8.58-16.25h4.82l6.21 12.56zM213.15 269.9H226v3.53h-17v-32.77h4.15v29.24z"/>
  </g>
</svg>
