<svg xmlns="http://www.w3.org/2000/svg" width="600" height="600"><path d="M286 13.599c-58.349 3.83-108.909 21.647-154 54.267-64.833 46.903-106.216 117.099-116.611 197.8-2.227 17.292-2.227 51.376 0 68.668 17.054 132.404 117.873 233.223 250.277 250.277 17.292 2.227 51.376 2.227 68.668 0 132.389-17.053 233.224-117.888 250.277-250.277 2.227-17.292 2.227-51.376 0-68.668-10.22-79.343-49.799-147.634-113.133-195.204-39.763-29.866-87.322-48.975-136.644-54.902-12.751-1.533-39.19-2.594-48.834-1.961m-3.5 28.029c-54.226 4.515-103.004 23.558-144 56.216-9.338 7.439-28.075 25.748-36.49 35.656-30.739 36.196-50.597 80.482-58.135 129.644-2.898 18.907-3.146 52.294-.522 70.356 7.112 48.946 25.013 90.997 54.491 128 7.439 9.338 25.748 28.075 35.656 36.49 36.192 30.735 80.435 50.576 129.644 58.14 20.457 3.145 53.255 3.145 73.712 0 41.606-6.395 77.915-20.748 110.932-43.851 14.181-9.923 24.369-18.675 37.752-32.431 39.538-40.641 62.694-88.303 71.101-146.348 1.225-8.456 1.738-18.349 1.738-33.5 0-23.081-1.357-35.971-5.972-56.727-8.433-37.922-25.737-74.001-50.251-104.773-7.439-9.338-25.748-28.075-35.656-36.49-44.669-37.935-101.284-59.183-161-60.424-9.9-.206-20.25-.187-23 .042m2.321 8.464C159.116 57.196 56.782 159.788 50.173 285.333c-3.84 72.952 21.906 140.649 72.876 191.618 50.969 50.97 118.666 76.716 191.618 72.876 125.825-6.624 228.536-109.335 235.16-235.16 3.84-72.952-21.906-140.649-72.876-191.618-42.402-42.403-101.52-69.613-157.603-72.539-5.967-.312-13.098-.707-15.848-.879-2.75-.171-11.155.036-18.679.461M278.5 61.057c-61.527 6.121-118.042 35.031-157.25 80.443-33.699 39.032-53.38 84.062-58.782 134.5-3.297 30.773-.955 56.629 8.187 90.418 4.117 15.214 6.298 21.029 7.454 19.873.462-.462.352-7.579-.244-15.815-2.047-28.265.857-54.534 8.305-75.144 4.477-12.387 14.318-31.226 21.795-41.723 16.65-23.374 44.347-46.207 70.521-58.134 9.016-4.109 12.198-4.399 13.431-1.225.48 1.237 2.775 7.425 5.1 13.75 5.2 14.15 12.062 24.837 22.92 35.694 9.163 9.164 19.549 16.673 30.803 22.273 10.497 5.223 18.776 7.81 31.205 9.749 12.43 1.94 23.137.977 41.931-3.769 37.523-9.477 64.517-36.417 74.888-74.741 2.37-8.759 2.63-11.463 2.658-27.706.035-19.862-1.482-28.684-7.323-42.586-11.392-27.114-39.923-52.388-71.179-63.052-8.445-2.882-10.765-3.24-22.42-3.457-7.15-.134-17.05.159-22 .652m56 2.751c.55.556 6.625 4.27 13.5 8.252 25.545 14.797 42.057 26.983 55.009 40.597 21.918 23.038 36.496 52.929 42.599 87.343 2.328 13.127 2.326 42.828-.003 48.402-2.682 6.421-3.076 6.531-23.448 6.566-14.393.025-20.486.469-28.294 2.06-35.88 7.312-65.835 32.647-77.917 65.899-10.19 28.047-8.898 58.565 3.539 83.573 13.13 26.4 39.78 47.506 70.273 55.655 15.764 4.212 40.927 3.434 57.457-1.778 47.717-15.044 78.815-59.325 89.454-127.377 2.496-15.964 2.465-51-.059-66.5-11.374-69.851-49.562-129.558-107.11-167.471-12.866-8.476-34.809-19.491-49-24.597-17.335-6.237-48.862-13.519-46-10.624M166.625 257.497c-33.444 6.921-60.439 27.749-75.649 58.369-7.992 16.088-10.502 30.484-9.679 55.507 1.097 33.323 5.977 45.713 29.852 75.791 10.852 13.671 30.931 33.57 43.351 42.96 44.384 33.56 99.949 51.61 152.5 49.541 60.333-2.376 120.219-28.619 162.306-71.124 16.615-16.78 32.76-39.123 19.409-26.86C459.095 468.888 414.7 486 373.737 486c-38.889 0-81.286-14.706-105.714-36.669-7.925-7.125-7.777-9.126 1.467-19.831 9.797-11.345 16.177-22.686 21.096-37.5 2.656-7.996 2.826-9.538 2.869-26 .048-18.789-.861-24.655-6.075-39.178-9.592-26.723-28.392-48.012-53.343-60.411-14.38-7.145-25.338-9.607-44.537-10.005-11.124-.23-18.095.102-22.875 1.091" fill="undefined" fill-rule="evenodd"/></svg>